<?xml version="1.0" standalone="no"?>
<!DOCTYPE svg PUBLIC "-//W3C//DTD SVG 20010904//EN"
 "http://www.w3.org/TR/2001/REC-SVG-20010904/DTD/svg10.dtd">
<svg version="1.0" xmlns="http://www.w3.org/2000/svg"
 width="225.000000pt" height="225.000000pt" viewBox="0 0 225.000000 225.000000"
 preserveAspectRatio="xMidYMid meet">
<metadata>
Created by potrace 1.11, written by Peter Selinger 2001-2013
</metadata>
<g transform="translate(0.000000,225.000000) scale(0.100000,-0.100000)"
fill="#000000" stroke="none">
<path d="M1120 1790 c-1 -41 -22 -90 -39 -90 -9 0 -40 -12 -68 -26 -51 -25
-52 -25 -79 -7 l-27 18 17 -27 c18 -27 17 -29 -8 -80 -14 -28 -26 -60 -26 -69
0 -12 -16 -21 -57 -31 l-58 -14 57 -12 c53 -12 56 -14 62 -50 3 -20 16 -53 29
-72 23 -33 24 -36 8 -60 l-16 -25 24 15 c22 15 27 14 79 -12 30 -15 61 -28 68
-28 13 0 17 -9 30 -70 l8 -35 11 48 c10 47 12 49 63 66 28 10 60 25 70 34 16
15 21 15 38 2 28 -21 37 -18 21 6 -14 19 -12 26 14 76 16 30 29 64 29 74 0 14
10 20 40 25 56 9 59 21 5 29 -34 6 -45 12 -45 25 0 10 -13 43 -29 73 -26 49
-27 58 -15 74 21 28 17 35 -10 18 -22 -15 -27 -14 -71 10 -27 14 -58 25 -71
25 -19 0 -24 7 -30 38 -8 43 -23 77 -24 52z m90 -190 c54 -28 84 -86 77 -153
-7 -81 -63 -137 -144 -144 -101 -9 -165 47 -171 152 -3 50 0 66 20 95 46 68
140 90 218 50z"/>
<path d="M1071 1582 c-70 -35 -97 -110 -65 -177 23 -50 66 -75 128 -75 43 0
53 4 87 39 35 34 39 44 39 87 0 61 -25 105 -73 127 -45 22 -73 21 -116 -1z
m64 -92 c3 -5 0 -21 -7 -34 l-13 -25 -11 34 c-10 31 -9 35 7 35 10 0 21 -4 24
-10z"/>
<path d="M1421 1069 c-51 -16 -82 -40 -97 -76 -18 -42 -18 -67 2 -109 14 -28
32 -42 101 -75 93 -44 108 -63 74 -91 -27 -21 -80 -23 -133 -4 -34 12 -37 12
-42 -8 -3 -12 -6 -35 -6 -52 0 -29 3 -32 38 -38 64 -10 161 -7 196 8 94 39
123 159 53 224 -12 11 -49 31 -82 43 -72 27 -85 36 -85 60 0 37 76 49 158 24
21 -7 22 -4 22 38 0 25 -5 49 -10 52 -19 12 -154 15 -189 4z"/>
<path d="M608 1064 c-5 -4 -8 -106 -8 -226 l0 -218 65 0 65 0 0 74 0 73 62 7
c112 11 163 64 155 163 -7 97 -54 125 -217 131 -63 2 -118 1 -122 -4z m212
-116 c13 -25 13 -31 0 -55 -12 -22 -24 -29 -53 -31 l-37 -3 0 61 0 61 37 -3
c29 -2 41 -9 53 -30z"/>
<path d="M970 845 l0 -225 160 0 160 0 0 45 0 45 -100 0 -100 0 0 50 0 50 90
0 90 0 0 40 0 40 -90 0 -90 0 0 45 0 45 95 0 95 0 0 45 0 45 -155 0 -155 0 0
-225z"/>
<path d="M600 509 c0 -17 5 -39 10 -50 12 -21 50 -25 68 -7 14 14 16 88 2 88
-5 0 -10 -18 -10 -40 0 -36 -2 -40 -25 -40 -22 0 -25 4 -25 40 0 22 -4 40 -10
40 -5 0 -10 -14 -10 -31z"/>
<path d="M740 489 c0 -31 4 -48 10 -44 6 3 10 18 10 33 l1 27 29 -32 c16 -18
32 -33 35 -33 3 0 5 23 5 52 0 56 -8 62 -12 9 l-2 -34 -32 37 c-17 20 -34 36
-38 36 -3 0 -6 -23 -6 -51z"/>
<path d="M880 490 c0 -27 5 -50 10 -50 6 0 10 23 10 50 0 28 -4 50 -10 50 -5
0 -10 -22 -10 -50z"/>
<path d="M946 520 c12 -46 37 -86 42 -70 3 8 13 32 24 53 10 21 14 37 8 37 -6
0 -16 -13 -21 -30 -11 -30 -29 -41 -29 -17 0 7 -7 22 -16 33 -14 18 -15 18 -8
-6z"/>
<path d="M1062 493 c3 -44 5 -48 31 -51 15 -2 27 1 27 7 0 6 -9 11 -20 11 -11
0 -20 5 -20 10 0 6 9 10 20 10 11 0 20 5 20 10 0 6 -9 10 -20 10 -11 0 -20 6
-20 14 0 9 7 12 20 9 11 -3 20 0 20 6 0 6 -14 11 -31 11 -30 0 -30 -1 -27 -47z"/>
<path d="M1170 491 c0 -28 5 -51 10 -51 6 0 10 9 10 20 0 11 4 20 10 20 5 0
14 -9 20 -20 6 -11 16 -20 22 -20 7 0 6 5 -2 15 -7 9 -13 30 -14 48 -1 27 -5
32 -28 35 -27 3 -28 2 -28 -47z m42 24 c0 -5 -5 -11 -11 -13 -6 -2 -11 4 -11
13 0 9 5 15 11 13 6 -2 11 -8 11 -13z"/>
<path d="M1283 523 c-4 -10 2 -23 15 -34 28 -22 27 -27 0 -32 -21 -3 -21 -4
-5 -12 13 -5 24 -2 35 9 16 16 16 18 -5 36 -26 21 -31 45 -8 36 8 -3 15 -1 15
4 0 17 -40 11 -47 -7z"/>
<path d="M1380 490 c0 -27 5 -50 10 -50 6 0 10 23 10 50 0 28 -4 50 -10 50 -5
0 -10 -22 -10 -50z"/>
<path d="M1444 533 c4 -5 13 -8 19 -8 7 0 15 -20 18 -45 l5 -45 5 45 c2 25 9
45 16 45 6 0 15 3 19 8 4 4 -14 7 -41 7 -27 0 -45 -3 -41 -7z"/>
<path d="M1560 531 c0 -5 7 -14 15 -21 8 -7 15 -25 15 -41 0 -16 5 -29 10 -29
6 0 10 11 10 25 0 14 7 37 16 50 19 28 8 34 -12 8 -13 -17 -15 -17 -28 0 -14
18 -26 22 -26 8z"/>
</g>
</svg>
